<svg width="108" height="25" viewBox="0 0 108 25" fill="none" xmlns="http://www.w3.org/2000/svg">
<path d="M22.6305 24.2751H3.33667C1.98299 24.2751 0.773529 23.467 0.255504 22.2163C-0.26252 20.9657 0.0213019 19.539 0.978527 18.5819L14.3426 5.21783H4.76433C2.13307 5.21785 1.08193e-05 3.08479 1.08193e-05 0.453514H17.7932C19.1468 0.453514 20.3562 1.26144 20.8742 2.51208C21.3924 3.76271 21.1087 5.18922 20.1516 6.14674L6.78745 19.5108H17.8662C20.4975 19.5108 22.6305 21.6439 22.6305 24.2751ZM107.912 9.38662C107.912 4.2638 103.744 0.0961914 98.6215 0.0961914C95.8813 0.0961914 93.4152 1.28937 91.7132 3.18265C90.0113 1.28936 87.5451 0.0961914 84.805 0.0961914C79.6822 0.0961914 75.5145 4.26382 75.5145 9.38662V24.2751C78.1458 24.2751 80.2789 22.1421 80.2789 19.5108V9.38662C80.2789 6.89093 82.3093 4.86051 84.805 4.86051C87.3006 4.86051 89.3311 6.89093 89.3311 9.38662V19.5108C89.3311 22.1421 91.4641 24.2751 94.0954 24.2751V9.38662C94.0954 6.89093 96.1258 4.86051 98.6215 4.86051C101.117 4.86051 103.148 6.89093 103.148 9.38662V19.5108C103.148 22.1421 105.281 24.2751 107.912 24.2751V9.38662ZM73.1324 12.3643C73.1324 19.1398 67.6397 24.6325 60.8642 24.6325C54.0887 24.6325 48.5961 19.1398 48.5961 12.3643C48.5961 5.58882 54.0887 0.0961914 60.8642 0.0961914C67.6397 0.0961914 73.1324 5.58882 73.1324 12.3643ZM68.368 12.3643C68.368 8.22008 65.0085 4.86051 60.8642 4.86051C56.72 4.86051 53.3604 8.22008 53.3604 12.3643C53.3604 16.5086 56.72 19.8681 60.8642 19.8681C65.0085 19.8681 68.368 16.5086 68.368 12.3643ZM46.6904 12.3643C46.6904 19.1398 41.1978 24.6325 34.4223 24.6325C27.6468 24.6325 22.1541 19.1398 22.1541 12.3643C22.1541 5.58882 27.6468 0.0961914 34.4223 0.0961914C41.1978 0.0961914 46.6904 5.58882 46.6904 12.3643ZM41.9261 12.3643C41.9261 8.22008 38.5665 4.86051 34.4223 4.86051C30.278 4.86051 26.9184 8.22008 26.9184 12.3643C26.9184 16.5086 30.278 19.8681 34.4223 19.8681C38.5665 19.8681 41.9261 16.5086 41.9261 12.3643Z" fill="#0B5CFF"></path>
</svg>