<svg width="173" height="33" viewBox="0 0 173 33" fill="none" xmlns="http://www.w3.org/2000/svg">
<path d="M27.4902 0.499878H32.2187L26.2102 26.2773H20.8775L16.5391 6.50844L12.2724 26.2773H6.86795L0.822876 0.499878H5.73018L9.85462 20.411L13.9438 0.499878H19.1708L23.5784 20.4462L27.4902 0.499878ZM41.6067 26.7392C36.9486 26.7392 32.1848 23.6456 32.1848 16.7485C32.1848 9.85004 36.9486 6.72116 41.6067 6.72116C46.2648 6.72116 51.0286 9.85004 51.0286 16.7485C51.0286 23.6456 46.2648 26.7392 41.6067 26.7392ZM46.6562 16.7485C46.6562 12.3396 44.2737 10.171 41.6067 10.171C38.9397 10.171 36.5572 12.3396 36.5572 16.7485C36.5572 21.1573 38.9397 23.2907 41.6067 23.2907C44.2737 23.2907 46.6562 21.1573 46.6562 16.7485ZM62.2717 11.344C59.6047 11.344 58.0768 12.41 58.0768 16.25V26.2773H53.8453V7.14782H58.005V10.5612C59.0358 8.42783 60.8847 7.14782 63.1968 7.11258C63.5165 7.11258 63.9784 7.14782 64.298 7.18432V11.451C63.5869 11.3793 62.9123 11.344 62.2717 11.344ZM71.1411 14.8278L78.2157 7.14782H83.3004L75.9766 15.0065L84.1185 26.2773H79.176L73.1674 17.9932L71.1411 20.1618V26.2774H66.9096V0.499878H71.1411L71.1411 14.8278ZM90.2114 9.70781C91.3492 7.82368 93.3403 6.72115 95.9003 6.72115C100.558 6.72115 104.114 10.5976 104.114 16.7132C104.114 22.864 100.558 26.7392 95.9003 26.7392C93.3403 26.7392 91.3492 25.6367 90.2114 23.7526V32.4999H85.9813V7.14782H90.2114V9.70781ZM99.7051 16.7132C99.7051 12.6945 97.9279 10.171 94.9765 10.171C92.2026 10.171 90.034 12.3043 90.034 16.7132C90.034 21.1221 92.2026 23.2907 94.9765 23.2907C97.9279 23.2907 99.7051 20.7659 99.7051 16.7132ZM107.328 26.2773V0.499878H111.56V26.2773H107.328ZM127.555 14.3307V13.9745C127.555 10.7034 125.671 9.70781 123.573 9.70781C121.44 9.70781 119.84 10.8456 119.733 13.1576H115.574C115.858 9.2459 119.094 6.57893 123.715 6.57893C128.302 6.57893 131.894 8.67702 131.787 14.7926C131.787 15.7529 131.715 17.9932 131.715 19.7351C131.715 22.1529 131.929 24.6777 132.284 26.2773H128.409C128.267 25.4592 128.124 24.9973 128.054 23.6821C126.844 25.7437 124.569 26.7392 121.76 26.7392C117.6 26.7392 114.685 24.4989 114.685 21.0151C114.685 16.25 120.551 15.0418 127.555 14.3307ZM119.164 20.9081C119.164 22.5795 120.551 23.5751 122.685 23.5751C125.814 23.5751 127.662 21.9754 127.662 18.7396V17.2821C121.619 17.851 119.164 18.7043 119.164 20.9081ZM148.288 13.69C147.932 11.6637 146.155 10.2415 143.843 10.2415C141.213 10.2415 138.83 12.1973 138.83 16.7132C138.83 21.2643 141.248 23.2189 143.737 23.2189C145.799 23.2189 147.897 22.2951 148.431 19.7351H152.555C151.702 24.2145 147.755 26.7392 143.666 26.7392C138.119 26.7392 134.456 22.4373 134.456 16.7484C134.456 11.0596 138.154 6.72115 143.843 6.72115C148.004 6.72115 151.702 9.42337 152.413 13.69L148.288 13.69ZM163.85 23.2189C166.054 23.2189 167.796 22.3303 168.542 20.5532H172.703C171.814 23.6103 168.97 26.7392 164.027 26.7392C157.876 26.7392 154.356 22.0459 154.356 16.571C154.356 10.8103 158.302 6.72112 163.743 6.72112C169.609 6.72112 173.272 11.4862 172.916 17.9214H158.658C158.943 21.477 161.431 23.2189 163.85 23.2189ZM168.614 14.8278C168.507 11.8411 166.231 10.0287 163.743 10.0287C161.752 10.0287 159.014 11.2018 158.658 14.8278H168.614Z" fill="#0D213F"></path>
</svg>