<svg width="129" height="34" viewBox="0 0 129 34" fill="none" xmlns="http://www.w3.org/2000/svg">
<path d="M32.0088 17C32.0088 18.7115 31.8712 20.3896 31.6084 22.026C30.7384 27.443 26.4474 31.734 21.0303 32.604C19.394 32.8668 17.7157 33.0044 16.0044 33.0044C14.2931 33.0044 12.6149 32.8668 10.9785 32.604C5.56146 31.734 1.27047 27.443 0.400422 22.026C0.137599 20.3897 0 18.7115 0 17C0 15.2886 0.137599 13.6104 0.400422 11.9741C1.27047 6.55701 5.56146 2.26607 10.9785 1.39603C12.6149 1.1332 14.2931 0.995605 16.0044 0.995605C17.7157 0.995605 19.394 1.1332 21.0303 1.39603C26.4474 2.26607 30.7384 6.55701 31.6084 11.9741C31.8712 13.6103 32.0088 15.2886 32.0088 17Z" fill="#0B5CFF"/>
<path d="M32.0088 17C32.0088 18.7115 31.8712 20.3896 31.6084 22.026C30.7384 27.443 26.4474 31.734 21.0303 32.604C19.394 32.8668 17.7157 33.0044 16.0044 33.0044C14.2931 33.0044 12.6149 32.8668 10.9785 32.604C5.56146 31.734 1.27047 27.443 0.400422 22.026C0.137599 20.3897 0 18.7115 0 17C0 15.2886 0.137599 13.6104 0.400422 11.9741C1.27047 6.55701 5.56146 2.26607 10.9785 1.39603C12.6149 1.1332 14.2931 0.995605 16.0044 0.995605C17.7157 0.995605 19.394 1.1332 21.0303 1.39603C26.4474 2.26607 30.7384 6.55701 31.6084 11.9741C31.8712 13.6103 32.0088 15.2886 32.0088 17Z" fill="url(#paint0_radial_1_1088)"/>
<path d="M32.0087 17C32.0087 18.7114 31.8711 20.3896 31.6083 22.0259C30.7382 27.443 26.4473 31.734 21.0302 32.604C19.3939 32.8668 17.7157 33.0044 16.0044 33.0044C14.293 33.0044 12.6148 32.8668 10.9785 32.604C5.56136 31.734 1.27043 27.443 0.400381 22.0259C0.137557 20.3896 1.52588e-05 18.7114 1.52588e-05 17C1.52588e-05 15.2886 0.137557 13.6103 0.400381 11.974C1.27048 6.55701 5.56142 2.26596 10.9785 1.39597C12.6149 1.13315 14.293 0.995605 16.0044 0.995605C17.7158 0.995605 19.3939 1.13315 21.0302 1.39597C26.4473 2.26596 30.7383 6.55701 31.6083 11.974C31.8711 13.6103 32.0087 15.2885 32.0087 17Z" fill="url(#paint1_radial_1_1088)"/>
<g clip-path="url(#clip0_1_1088)">
<path d="M19.4339 21.0011C19.4339 21.9481 18.6662 22.7159 17.7192 22.7159H10.2886C8.39448 22.7159 6.85904 21.1805 6.85904 19.2864V12.9989C6.85904 12.052 7.62676 11.2842 8.5738 11.2842H16.0044C17.8985 11.2842 19.4339 12.8196 19.4339 14.7137V21.0011ZM23.778 12.3129L21.263 14.1992C20.8312 14.523 20.5771 15.0313 20.5771 15.571L20.5772 18.4289C20.5772 18.9687 20.8313 19.4769 21.263 19.8007L23.778 21.6869C24.3432 22.1109 25.1498 21.7076 25.1498 21.001V12.9988C25.1498 12.2923 24.3432 11.889 23.778 12.3129Z" fill="white"/>
</g>
<path d="M49.1813 24.6859L45.5255 13.0232V24.6859H43.0619V10.2814H46.9759L50.4728 21.7653L53.9497 10.2814H57.8638V24.6859H55.4001V13.0232L51.7443 24.6859H49.1813ZM65.2672 24.9442C64.393 24.9442 63.6181 24.7919 62.9426 24.4872C62.2803 24.1826 61.724 23.772 61.2737 23.2554C60.8366 22.7388 60.4988 22.1361 60.2604 21.4474C60.0352 20.7586 59.9226 20.0301 59.9226 19.2619C59.9226 18.4539 60.0485 17.7187 60.3001 17.0565C60.5518 16.3809 60.9028 15.7981 61.3532 15.3081C61.8035 14.818 62.3466 14.4405 62.9824 14.1756C63.6181 13.8974 64.3268 13.7583 65.1083 13.7583C65.9427 13.7583 66.6845 13.9173 67.3335 14.2352C67.9826 14.5531 68.5256 14.9902 68.9627 15.5465C69.3998 16.1028 69.7244 16.7651 69.9363 17.5333C70.1482 18.2883 70.2277 19.1162 70.1747 20.0169H62.3267C62.34 20.4407 62.4194 20.8381 62.5651 21.209C62.7241 21.5666 62.9294 21.8779 63.181 22.1428C63.4327 22.4077 63.7241 22.613 64.0553 22.7587C64.3996 22.9044 64.7705 22.9772 65.1679 22.9772C66.4527 22.9772 67.307 22.4805 67.7309 21.4871H70.0555C69.9363 21.911 69.7508 22.3348 69.4992 22.7587C69.2475 23.1693 68.923 23.5402 68.5256 23.8713C68.1415 24.1892 67.6779 24.4475 67.1348 24.6462C66.5918 24.8449 65.9692 24.9442 65.2672 24.9442ZM65.1083 15.6061C64.7771 15.6061 64.446 15.6591 64.1149 15.765C63.797 15.871 63.5056 16.0366 63.2406 16.2617C62.989 16.4737 62.7771 16.7518 62.6049 17.0962C62.4327 17.4273 62.34 17.8247 62.3267 18.2883H67.7706C67.7574 17.8777 67.6779 17.5068 67.5322 17.1757C67.3865 16.8313 67.1944 16.5465 66.956 16.3213C66.7176 16.0962 66.4395 15.924 66.1216 15.8048C65.8037 15.6723 65.4659 15.6061 65.1083 15.6061ZM76.8894 24.9442C76.0152 24.9442 75.2404 24.7919 74.5648 24.4872C73.9025 24.1826 73.3462 23.772 72.8959 23.2554C72.4588 22.7388 72.121 22.1361 71.8826 21.4474C71.6574 20.7586 71.5448 20.0301 71.5448 19.2619C71.5448 18.4539 71.6707 17.7187 71.9223 17.0565C72.174 16.3809 72.525 15.7981 72.9754 15.3081C73.4257 14.818 73.9688 14.4405 74.6046 14.1756C75.2404 13.8974 75.949 13.7583 76.7305 13.7583C77.5649 13.7583 78.3067 13.9173 78.9557 14.2352C79.6048 14.5531 80.1478 14.9902 80.5849 15.5465C81.022 16.1028 81.3466 16.7651 81.5585 17.5333C81.7704 18.2883 81.8499 19.1162 81.7969 20.0169H73.9489C73.9622 20.4407 74.0416 20.8381 74.1873 21.209C74.3463 21.5666 74.5516 21.8779 74.8032 22.1428C75.0549 22.4077 75.3463 22.613 75.6775 22.7587C76.0218 22.9044 76.3927 22.9772 76.7901 22.9772C78.0749 22.9772 78.9292 22.4805 79.3531 21.4871H81.6777C81.5585 21.911 81.373 22.3348 81.1214 22.7587C80.8697 23.1693 80.5452 23.5402 80.1478 23.8713C79.7637 24.1892 79.3001 24.4475 78.757 24.6462C78.214 24.8449 77.5914 24.9442 76.8894 24.9442ZM76.7305 15.6061C76.3993 15.6061 76.0682 15.6591 75.7371 15.765C75.4192 15.871 75.1278 16.0366 74.8629 16.2617C74.6112 16.4737 74.3993 16.7518 74.2271 17.0962C74.0549 17.4273 73.9622 17.8247 73.9489 18.2883H79.3928C79.3796 17.8777 79.3001 17.5068 79.1544 17.1757C79.0087 16.8313 78.8167 16.5465 78.5782 16.3213C78.3398 16.0962 78.0617 15.924 77.7438 15.8048C77.4259 15.6723 77.0881 15.6061 76.7305 15.6061ZM84.1036 11.1754H86.468V13.9967H88.6138V15.7054H86.468V21.5268C86.468 22.0699 86.5541 22.4342 86.7263 22.6196C86.8985 22.7918 87.2362 22.8779 87.7396 22.8779H88.5939V24.6859H86.8455C86.2759 24.6859 85.8123 24.6462 85.4547 24.5667C85.0971 24.474 84.8189 24.3217 84.6202 24.1097C84.4215 23.8978 84.2825 23.613 84.203 23.2554C84.1368 22.8845 84.1036 22.4275 84.1036 21.8845V15.7054H82.5142V13.9967H84.1036V11.1754ZM92.8823 10.2814V12.6656H90.518V10.2814H92.8823ZM92.8823 13.9967V24.6859H90.518V13.9967H92.8823ZM97.9076 15.4869C98.2123 14.9306 98.6361 14.5067 99.1792 14.2153C99.7355 13.9107 100.391 13.7583 101.146 13.7583C101.795 13.7583 102.345 13.8577 102.795 14.0564C103.259 14.255 103.636 14.5398 103.928 14.9107C104.219 15.2816 104.431 15.7253 104.564 16.2419C104.709 16.7584 104.782 17.3346 104.782 17.9704V24.6859H102.418V18.5466C102.418 18.189 102.398 17.838 102.358 17.4936C102.318 17.1492 102.226 16.8445 102.08 16.5796C101.948 16.3015 101.742 16.0829 101.464 15.924C101.199 15.765 100.842 15.6856 100.391 15.6856C99.9408 15.6856 99.5567 15.7717 99.2388 15.9438C98.9209 16.1028 98.6626 16.328 98.464 16.6194C98.2653 16.9108 98.1196 17.2618 98.0268 17.6724C97.9474 18.083 97.9076 18.5267 97.9076 19.0036V24.6859H95.5433V13.9967H97.9076V15.4869ZM114.257 13.9967H116.621V23.613C116.621 25.3614 116.184 26.6198 115.31 27.388C114.449 28.1562 113.19 28.5404 111.535 28.5404C110.952 28.5404 110.402 28.4808 109.886 28.3616C109.369 28.2423 108.905 28.0503 108.495 27.7854C108.097 27.5205 107.766 27.1761 107.501 26.7522C107.236 26.3416 107.058 25.8449 106.965 25.2621H109.309C109.415 25.7654 109.641 26.1231 109.985 26.335C110.343 26.5602 110.879 26.6727 111.594 26.6727C112.124 26.6727 112.561 26.5999 112.906 26.4542C113.25 26.3217 113.522 26.1363 113.72 25.8979C113.919 25.6595 114.058 25.3813 114.137 25.0634C114.217 24.7588 114.257 24.4342 114.257 24.0899V22.8382C113.939 23.368 113.508 23.7786 112.965 24.07C112.422 24.3614 111.793 24.5071 111.078 24.5071C110.429 24.5071 109.819 24.3879 109.25 24.1495C108.694 23.8978 108.21 23.5402 107.799 23.0766C107.389 22.5997 107.064 22.0302 106.826 21.3679C106.601 20.7056 106.488 19.9572 106.488 19.1228C106.488 18.2883 106.601 17.5399 106.826 16.8777C107.064 16.2154 107.389 15.6524 107.799 15.1888C108.21 14.7253 108.694 14.3742 109.25 14.1358C109.819 13.8842 110.429 13.7583 111.078 13.7583C111.793 13.7583 112.422 13.904 112.965 14.1954C113.508 14.4868 113.939 14.8974 114.257 15.4273V13.9967ZM114.356 19.1228C114.356 18.5267 114.283 18.0102 114.137 17.573C113.992 17.1359 113.793 16.7783 113.541 16.5002C113.303 16.2088 113.012 15.9968 112.667 15.8644C112.336 15.7187 111.978 15.6458 111.594 15.6458C110.76 15.6458 110.111 15.9571 109.647 16.5796C109.184 17.2022 108.952 18.0499 108.952 19.1228C108.952 20.2222 109.184 21.0831 109.647 21.7057C110.111 22.3282 110.76 22.6395 111.594 22.6395C111.978 22.6395 112.336 22.5732 112.667 22.4408C113.012 22.2951 113.303 22.0765 113.541 21.7851C113.793 21.4937 113.992 21.1295 114.137 20.6924C114.283 20.242 114.356 19.7188 114.356 19.1228ZM125.492 16.9969C125.372 16.4935 125.094 16.1293 124.657 15.9041C124.22 15.6789 123.664 15.5663 122.988 15.5663C122.445 15.5663 121.975 15.6723 121.578 15.8842C121.193 16.0829 121.001 16.3611 121.001 16.7187C121.001 17.381 121.518 17.8181 122.551 18.03L124.001 18.328C124.531 18.4473 125.028 18.5863 125.492 18.7453C125.968 18.891 126.379 19.083 126.723 19.3215C127.068 19.5599 127.339 19.8579 127.538 20.2155C127.737 20.5599 127.836 20.9904 127.836 21.507C127.836 22.0633 127.71 22.56 127.459 22.9971C127.22 23.421 126.889 23.7786 126.465 24.07C126.055 24.3482 125.571 24.5601 125.015 24.7058C124.472 24.8647 123.889 24.9442 123.266 24.9442C122.578 24.9442 121.948 24.8515 121.379 24.666C120.823 24.4806 120.339 24.2289 119.928 23.911C119.531 23.5932 119.207 23.2157 118.955 22.7786C118.716 22.3414 118.571 21.8646 118.518 21.348H120.823C120.928 21.9176 121.187 22.3613 121.597 22.6792C122.008 22.9971 122.591 23.1561 123.346 23.1561C124.008 23.1561 124.538 23.0368 124.935 22.7984C125.333 22.5468 125.531 22.209 125.531 21.7851C125.531 21.3613 125.352 21.0368 124.995 20.8116C124.65 20.5864 124.194 20.4142 123.624 20.295L122.015 19.9572C121.551 19.8645 121.121 19.7453 120.723 19.5996C120.326 19.4407 119.981 19.242 119.69 19.0036C119.412 18.7519 119.187 18.4539 119.014 18.1095C118.856 17.7519 118.776 17.328 118.776 16.8379C118.776 16.3611 118.889 15.9372 119.114 15.5663C119.352 15.1822 119.67 14.8577 120.068 14.5928C120.465 14.3279 120.928 14.1226 121.458 13.9769C121.988 13.8312 122.551 13.7583 123.147 13.7583C123.703 13.7583 124.233 13.8246 124.737 13.957C125.24 14.0895 125.69 14.2948 126.088 14.5729C126.498 14.8378 126.843 15.1756 127.121 15.5862C127.412 15.9836 127.611 16.4538 127.717 16.9969H125.492Z" fill="white"/>
<defs>
<radialGradient id="paint0_radial_1_1088" cx="0" cy="0" r="1" gradientUnits="userSpaceOnUse" gradientTransform="translate(16.0044 15.1402) scale(21.5781 18.0346)">
<stop offset="0.82" stop-color="#0B5CFF" stop-opacity="0"/>
<stop offset="0.98" stop-color="#003CB3"/>
</radialGradient>
<radialGradient id="paint1_radial_1_1088" cx="0" cy="0" r="1" gradientUnits="userSpaceOnUse" gradientTransform="translate(16.0044 18.8532) scale(21.5704 18.0281)">
<stop offset="0.8" stop-color="#0B5CFF" stop-opacity="0"/>
<stop offset="1" stop-color="#71A5F1"/>
</radialGradient>
<clipPath id="clip0_1_1088">
<rect width="20.5771" height="20.5771" fill="white" transform="translate(5.71587 6.71149)"/>
</clipPath>
</defs>
</svg>
